<svg width="713" height="900" viewBox="0 0 713 900" fill="none" xmlns="http://www.w3.org/2000/svg">
<rect width="700" height="900" fill="#C4C4C4"/>
<line y1="3.5" x2="700.027" y2="3.5" stroke="black" stroke-width="5"/>
<line y1="897.5" x2="700.027" y2="897.5" stroke="black" stroke-width="5"/>
<line x1="2.5" y1="896" x2="2.5" y2="5.99999" stroke="black" stroke-width="5"/>
<line x1="697.5" y1="895" x2="697.5" y2="4.99999" stroke="black" stroke-width="5"/>
<rect x="5" y="743" width="110" height="157" fill="black"/>
<rect x="5" y="5" width="110" height="94" fill="black"/>
<rect x="586" y="6" width="110" height="94" fill="black"/>
<rect x="5" y="209" width="110" height="157" fill="black"/>
<rect x="586" y="476" width="110" height="157" fill="black"/>
<rect x="5" y="476" width="110" height="157" fill="black"/>
<rect x="586" y="209" width="110" height="157" fill="black"/>
<rect x="225" y="743" width="80" height="157" fill="black"/>
<rect x="225" y="476" width="80" height="157" fill="black"/>
<rect x="590" y="743" width="110" height="157" fill="black"/>
<rect x="396" y="743" width="80" height="157" fill="black"/>
<rect x="396" y="476" width="80" height="157" fill="black"/>
<rect x="225" y="209" width="80" height="157" fill="black"/>
<rect x="396" y="209" width="80" height="157" fill="black"/>
<rect x="223" y="5" width="80" height="94" fill="black"/>
<rect x="395" y="5" width="80" height="94" fill="black"/>
<path d="M613.578 256.762C613 257.59 612.191 258.211 611.152 258.625C610.121 259.031 608.918 259.234 607.543 259.234C606.152 259.234 604.918 258.91 603.84 258.262C602.762 257.605 601.926 256.676 601.332 255.473C600.746 254.27 600.445 252.875 600.43 251.289V249.801C600.43 247.23 601.027 245.238 602.223 243.824C603.426 242.41 605.113 241.703 607.285 241.703C609.066 241.703 610.5 242.16 611.586 243.074C612.672 243.98 613.336 245.27 613.578 246.941H611.328C610.906 244.684 609.562 243.555 607.297 243.555C605.789 243.555 604.645 244.086 603.863 245.148C603.09 246.203 602.699 247.734 602.691 249.742V251.137C602.691 253.051 603.129 254.574 604.004 255.707C604.879 256.832 606.062 257.395 607.555 257.395C608.398 257.395 609.137 257.301 609.77 257.113C610.402 256.926 610.926 256.609 611.34 256.164V252.332H607.391V250.504H613.578V256.762ZM622.262 259.234C620.543 259.234 619.145 258.672 618.066 257.547C616.988 256.414 616.449 254.902 616.449 253.012V252.613C616.449 251.355 616.688 250.234 617.164 249.25C617.648 248.258 618.32 247.484 619.18 246.93C620.047 246.367 620.984 246.086 621.992 246.086C623.641 246.086 624.922 246.629 625.836 247.715C626.75 248.801 627.207 250.355 627.207 252.379V253.281H618.617C618.648 254.531 619.012 255.543 619.707 256.316C620.41 257.082 621.301 257.465 622.379 257.465C623.145 257.465 623.793 257.309 624.324 256.996C624.855 256.684 625.32 256.27 625.719 255.754L627.043 256.785C625.98 258.418 624.387 259.234 622.262 259.234ZM621.992 247.867C621.117 247.867 620.383 248.188 619.789 248.828C619.195 249.461 618.828 250.352 618.688 251.5H625.039V251.336C624.977 250.234 624.68 249.383 624.148 248.781C623.617 248.172 622.898 247.867 621.992 247.867ZM631.777 246.32L631.848 247.914C632.816 246.695 634.082 246.086 635.645 246.086C638.324 246.086 639.676 247.598 639.699 250.621V259H637.531V250.609C637.523 249.695 637.312 249.02 636.898 248.582C636.492 248.145 635.855 247.926 634.988 247.926C634.285 247.926 633.668 248.113 633.137 248.488C632.605 248.863 632.191 249.355 631.895 249.965V259H629.727V246.32H631.777ZM648.23 259.234C646.512 259.234 645.113 258.672 644.035 257.547C642.957 256.414 642.418 254.902 642.418 253.012V252.613C642.418 251.355 642.656 250.234 643.133 249.25C643.617 248.258 644.289 247.484 645.148 246.93C646.016 246.367 646.953 246.086 647.961 246.086C649.609 246.086 650.891 246.629 651.805 247.715C652.719 248.801 653.176 250.355 653.176 252.379V253.281H644.586C644.617 254.531 644.98 255.543 645.676 256.316C646.379 257.082 647.27 257.465 648.348 257.465C649.113 257.465 649.762 257.309 650.293 256.996C650.824 256.684 651.289 256.27 651.688 255.754L653.012 256.785C651.949 258.418 650.355 259.234 648.23 259.234ZM647.961 247.867C647.086 247.867 646.352 248.188 645.758 248.828C645.164 249.461 644.797 250.352 644.656 251.5H651.008V251.336C650.945 250.234 650.648 249.383 650.117 248.781C649.586 248.172 648.867 247.867 647.961 247.867ZM661.824 248.266C661.496 248.211 661.141 248.184 660.758 248.184C659.336 248.184 658.371 248.789 657.863 250V259H655.695V246.32H657.805L657.84 247.785C658.551 246.652 659.559 246.086 660.863 246.086C661.285 246.086 661.605 246.141 661.824 246.25V248.266ZM671.188 259C671.062 258.75 670.961 258.305 670.883 257.664C669.875 258.711 668.672 259.234 667.273 259.234C666.023 259.234 664.996 258.883 664.191 258.18C663.395 257.469 662.996 256.57 662.996 255.484C662.996 254.164 663.496 253.141 664.496 252.414C665.504 251.68 666.918 251.312 668.738 251.312H670.848V250.316C670.848 249.559 670.621 248.957 670.168 248.512C669.715 248.059 669.047 247.832 668.164 247.832C667.391 247.832 666.742 248.027 666.219 248.418C665.695 248.809 665.434 249.281 665.434 249.836H663.254C663.254 249.203 663.477 248.594 663.922 248.008C664.375 247.414 664.984 246.945 665.75 246.602C666.523 246.258 667.371 246.086 668.293 246.086C669.754 246.086 670.898 246.453 671.727 247.188C672.555 247.914 672.984 248.918 673.016 250.199V256.035C673.016 257.199 673.164 258.125 673.461 258.812V259H671.188ZM667.59 257.348C668.27 257.348 668.914 257.172 669.523 256.82C670.133 256.469 670.574 256.012 670.848 255.449V252.848H669.148C666.492 252.848 665.164 253.625 665.164 255.18C665.164 255.859 665.391 256.391 665.844 256.773C666.297 257.156 666.879 257.348 667.59 257.348ZM678.77 259H676.602V241H678.77V259ZM603.887 269.938L609.465 283.859L615.043 269.938H617.961V287H615.711V280.355L615.922 273.184L610.32 287H608.598L603.008 273.219L603.23 280.355V287H600.98V269.938H603.887ZM629.422 287C629.297 286.75 629.195 286.305 629.117 285.664C628.109 286.711 626.906 287.234 625.508 287.234C624.258 287.234 623.23 286.883 622.426 286.18C621.629 285.469 621.23 284.57 621.23 283.484C621.23 282.164 621.73 281.141 622.73 280.414C623.738 279.68 625.152 279.312 626.973 279.312H629.082V278.316C629.082 277.559 628.855 276.957 628.402 276.512C627.949 276.059 627.281 275.832 626.398 275.832C625.625 275.832 624.977 276.027 624.453 276.418C623.93 276.809 623.668 277.281 623.668 277.836H621.488C621.488 277.203 621.711 276.594 622.156 276.008C622.609 275.414 623.219 274.945 623.984 274.602C624.758 274.258 625.605 274.086 626.527 274.086C627.988 274.086 629.133 274.453 629.961 275.188C630.789 275.914 631.219 276.918 631.25 278.199V284.035C631.25 285.199 631.398 286.125 631.695 286.812V287H629.422ZM625.824 285.348C626.504 285.348 627.148 285.172 627.758 284.82C628.367 284.469 628.809 284.012 629.082 283.449V280.848H627.383C624.727 280.848 623.398 281.625 623.398 283.18C623.398 283.859 623.625 284.391 624.078 284.773C624.531 285.156 625.113 285.348 625.824 285.348ZM636.699 274.32L636.77 275.914C637.738 274.695 639.004 274.086 640.566 274.086C643.246 274.086 644.598 275.598 644.621 278.621V287H642.453V278.609C642.445 277.695 642.234 277.02 641.82 276.582C641.414 276.145 640.777 275.926 639.91 275.926C639.207 275.926 638.59 276.113 638.059 276.488C637.527 276.863 637.113 277.355 636.816 277.965V287H634.648V274.32H636.699ZM655.719 287C655.594 286.75 655.492 286.305 655.414 285.664C654.406 286.711 653.203 287.234 651.805 287.234C650.555 287.234 649.527 286.883 648.723 286.18C647.926 285.469 647.527 284.57 647.527 283.484C647.527 282.164 648.027 281.141 649.027 280.414C650.035 279.68 651.449 279.312 653.27 279.312H655.379V278.316C655.379 277.559 655.152 276.957 654.699 276.512C654.246 276.059 653.578 275.832 652.695 275.832C651.922 275.832 651.273 276.027 650.75 276.418C650.227 276.809 649.965 277.281 649.965 277.836H647.785C647.785 277.203 648.008 276.594 648.453 276.008C648.906 275.414 649.516 274.945 650.281 274.602C651.055 274.258 651.902 274.086 652.824 274.086C654.285 274.086 655.43 274.453 656.258 275.188C657.086 275.914 657.516 276.918 657.547 278.199V284.035C657.547 285.199 657.695 286.125 657.992 286.812V287H655.719ZM652.121 285.348C652.801 285.348 653.445 285.172 654.055 284.82C654.664 284.469 655.105 284.012 655.379 283.449V280.848H653.68C651.023 280.848 649.695 281.625 649.695 283.18C649.695 283.859 649.922 284.391 650.375 284.773C650.828 285.156 651.41 285.348 652.121 285.348ZM660.43 280.555C660.43 278.578 660.887 277.008 661.801 275.844C662.715 274.672 663.926 274.086 665.434 274.086C666.98 274.086 668.188 274.633 669.055 275.727L669.16 274.32H671.141V286.695C671.141 288.336 670.652 289.629 669.676 290.574C668.707 291.52 667.402 291.992 665.762 291.992C664.848 291.992 663.953 291.797 663.078 291.406C662.203 291.016 661.535 290.48 661.074 289.801L662.199 288.5C663.129 289.648 664.266 290.223 665.609 290.223C666.664 290.223 667.484 289.926 668.07 289.332C668.664 288.738 668.961 287.902 668.961 286.824V285.734C668.094 286.734 666.91 287.234 665.41 287.234C663.926 287.234 662.723 286.637 661.801 285.441C660.887 284.246 660.43 282.617 660.43 280.555ZM662.609 280.801C662.609 282.23 662.902 283.355 663.488 284.176C664.074 284.988 664.895 285.395 665.949 285.395C667.316 285.395 668.32 284.773 668.961 283.531V277.742C668.297 276.531 667.301 275.926 665.973 275.926C664.918 275.926 664.094 276.336 663.5 277.156C662.906 277.977 662.609 279.191 662.609 280.801ZM679.684 287.234C677.965 287.234 676.566 286.672 675.488 285.547C674.41 284.414 673.871 282.902 673.871 281.012V280.613C673.871 279.355 674.109 278.234 674.586 277.25C675.07 276.258 675.742 275.484 676.602 274.93C677.469 274.367 678.406 274.086 679.414 274.086C681.062 274.086 682.344 274.629 683.258 275.715C684.172 276.801 684.629 278.355 684.629 280.379V281.281H676.039C676.07 282.531 676.434 283.543 677.129 284.316C677.832 285.082 678.723 285.465 679.801 285.465C680.566 285.465 681.215 285.309 681.746 284.996C682.277 284.684 682.742 284.27 683.141 283.754L684.465 284.785C683.402 286.418 681.809 287.234 679.684 287.234ZM679.414 275.867C678.539 275.867 677.805 276.188 677.211 276.828C676.617 277.461 676.25 278.352 676.109 279.5H682.461V279.336C682.398 278.234 682.102 277.383 681.57 276.781C681.039 276.172 680.32 275.867 679.414 275.867ZM693.277 276.266C692.949 276.211 692.594 276.184 692.211 276.184C690.789 276.184 689.824 276.789 689.316 278V287H687.148V274.32H689.258L689.293 275.785C690.004 274.652 691.012 274.086 692.316 274.086C692.738 274.086 693.059 274.141 693.277 274.25V276.266ZM614.105 307.02C614.105 308.691 613.824 310.152 613.262 311.402C612.699 312.645 611.902 313.594 610.871 314.25C609.84 314.906 608.637 315.234 607.262 315.234C605.918 315.234 604.727 314.906 603.688 314.25C602.648 313.586 601.84 312.645 601.262 311.426C600.691 310.199 600.398 308.781 600.383 307.172V305.941C600.383 304.301 600.668 302.852 601.238 301.594C601.809 300.336 602.613 299.375 603.652 298.711C604.699 298.039 605.895 297.703 607.238 297.703C608.605 297.703 609.809 298.035 610.848 298.699C611.895 299.355 612.699 300.312 613.262 301.57C613.824 302.82 614.105 304.277 614.105 305.941V307.02ZM611.867 305.918C611.867 303.895 611.461 302.344 610.648 301.266C609.836 300.18 608.699 299.637 607.238 299.637C605.816 299.637 604.695 300.18 603.875 301.266C603.062 302.344 602.645 303.844 602.621 305.766V307.02C602.621 308.98 603.031 310.523 603.852 311.648C604.68 312.766 605.816 313.324 607.262 313.324C608.715 313.324 609.84 312.797 610.637 311.742C611.434 310.68 611.844 309.16 611.867 307.184V305.918ZM618.207 315V303.996H616.203V302.32H618.207V301.02C618.207 299.66 618.57 298.609 619.297 297.867C620.023 297.125 621.051 296.754 622.379 296.754C622.879 296.754 623.375 296.82 623.867 296.953L623.75 298.711C623.383 298.641 622.992 298.605 622.578 298.605C621.875 298.605 621.332 298.812 620.949 299.227C620.566 299.633 620.375 300.219 620.375 300.984V302.32H625.062V301.242C625.062 299.828 625.465 298.727 626.27 297.938C627.082 297.148 628.227 296.754 629.703 296.754C630.578 296.754 631.684 296.992 633.02 297.469L632.656 299.297C631.68 298.906 630.746 298.711 629.855 298.711C628.926 298.711 628.254 298.918 627.84 299.332C627.434 299.746 627.23 300.375 627.23 301.219V302.32H629.832V303.996H627.23V315H625.062V303.996H620.375V315H618.207ZM634.086 315H631.918V302.32H634.086V315ZM642.711 313.465C643.484 313.465 644.16 313.23 644.738 312.762C645.316 312.293 645.637 311.707 645.699 311.004H647.75C647.711 311.73 647.461 312.422 647 313.078C646.539 313.734 645.922 314.258 645.148 314.648C644.383 315.039 643.57 315.234 642.711 315.234C640.984 315.234 639.609 314.66 638.586 313.512C637.57 312.355 637.062 310.777 637.062 308.777V308.414C637.062 307.18 637.289 306.082 637.742 305.121C638.195 304.16 638.844 303.414 639.688 302.883C640.539 302.352 641.543 302.086 642.699 302.086C644.121 302.086 645.301 302.512 646.238 303.363C647.184 304.215 647.688 305.32 647.75 306.68H645.699C645.637 305.859 645.324 305.188 644.762 304.664C644.207 304.133 643.52 303.867 642.699 303.867C641.598 303.867 640.742 304.266 640.133 305.062C639.531 305.852 639.23 306.996 639.23 308.496V308.906C639.23 310.367 639.531 311.492 640.133 312.281C640.734 313.07 641.594 313.465 642.711 313.465ZM655.449 315.234C653.73 315.234 652.332 314.672 651.254 313.547C650.176 312.414 649.637 310.902 649.637 309.012V308.613C649.637 307.355 649.875 306.234 650.352 305.25C650.836 304.258 651.508 303.484 652.367 302.93C653.234 302.367 654.172 302.086 655.18 302.086C656.828 302.086 658.109 302.629 659.023 303.715C659.938 304.801 660.395 306.355 660.395 308.379V309.281H651.805C651.836 310.531 652.199 311.543 652.895 312.316C653.598 313.082 654.488 313.465 655.566 313.465C656.332 313.465 656.98 313.309 657.512 312.996C658.043 312.684 658.508 312.27 658.906 311.754L660.23 312.785C659.168 314.418 657.574 315.234 655.449 315.234ZM655.18 303.867C654.305 303.867 653.57 304.188 652.977 304.828C652.383 305.461 652.016 306.352 651.875 307.5H658.227V307.336C658.164 306.234 657.867 305.383 657.336 304.781C656.805 304.172 656.086 303.867 655.18 303.867Z" fill="white"/>
<path d="M18.3945 267H16.1445V249.938H18.3945V267ZM33.957 251.789H28.4727V267H26.2344V251.789H20.7617V249.938H33.957V251.789ZM18.8867 277.938L24.4648 291.859L30.043 277.938H32.9609V295H30.7109V288.355L30.9219 281.184L25.3203 295H23.5977L18.0078 281.219L18.2305 288.355V295H15.9805V277.938H18.8867ZM44.4219 295C44.2969 294.75 44.1953 294.305 44.1172 293.664C43.1094 294.711 41.9062 295.234 40.5078 295.234C39.2578 295.234 38.2305 294.883 37.4258 294.18C36.6289 293.469 36.2305 292.57 36.2305 291.484C36.2305 290.164 36.7305 289.141 37.7305 288.414C38.7383 287.68 40.1523 287.312 41.9727 287.312H44.082V286.316C44.082 285.559 43.8555 284.957 43.4023 284.512C42.9492 284.059 42.2812 283.832 41.3984 283.832C40.625 283.832 39.9766 284.027 39.4531 284.418C38.9297 284.809 38.668 285.281 38.668 285.836H36.4883C36.4883 285.203 36.7109 284.594 37.1562 284.008C37.6094 283.414 38.2188 282.945 38.9844 282.602C39.7578 282.258 40.6055 282.086 41.5273 282.086C42.9883 282.086 44.1328 282.453 44.9609 283.188C45.7891 283.914 46.2188 284.918 46.25 286.199V292.035C46.25 293.199 46.3984 294.125 46.6953 294.812V295H44.4219ZM40.8242 293.348C41.5039 293.348 42.1484 293.172 42.7578 292.82C43.3672 292.469 43.8086 292.012 44.082 291.449V288.848H42.3828C39.7266 288.848 38.3984 289.625 38.3984 291.18C38.3984 291.859 38.625 292.391 39.0781 292.773C39.5312 293.156 40.1133 293.348 40.8242 293.348ZM51.6992 282.32L51.7695 283.914C52.7383 282.695 54.0039 282.086 55.5664 282.086C58.2461 282.086 59.5977 283.598 59.6211 286.621V295H57.4531V286.609C57.4453 285.695 57.2344 285.02 56.8203 284.582C56.4141 284.145 55.7773 283.926 54.9102 283.926C54.207 283.926 53.5898 284.113 53.0586 284.488C52.5273 284.863 52.1133 285.355 51.8164 285.965V295H49.6484V282.32H51.6992ZM70.7188 295C70.5938 294.75 70.4922 294.305 70.4141 293.664C69.4062 294.711 68.2031 295.234 66.8047 295.234C65.5547 295.234 64.5273 294.883 63.7227 294.18C62.9258 293.469 62.5273 292.57 62.5273 291.484C62.5273 290.164 63.0273 289.141 64.0273 288.414C65.0352 287.68 66.4492 287.312 68.2695 287.312H70.3789V286.316C70.3789 285.559 70.1523 284.957 69.6992 284.512C69.2461 284.059 68.5781 283.832 67.6953 283.832C66.9219 283.832 66.2734 284.027 65.75 284.418C65.2266 284.809 64.9648 285.281 64.9648 285.836H62.7852C62.7852 285.203 63.0078 284.594 63.4531 284.008C63.9062 283.414 64.5156 282.945 65.2812 282.602C66.0547 282.258 66.9023 282.086 67.8242 282.086C69.2852 282.086 70.4297 282.453 71.2578 283.188C72.0859 283.914 72.5156 284.918 72.5469 286.199V292.035C72.5469 293.199 72.6953 294.125 72.9922 294.812V295H70.7188ZM67.1211 293.348C67.8008 293.348 68.4453 293.172 69.0547 292.82C69.6641 292.469 70.1055 292.012 70.3789 291.449V288.848H68.6797C66.0234 288.848 64.6953 289.625 64.6953 291.18C64.6953 291.859 64.9219 292.391 65.375 292.773C65.8281 293.156 66.4102 293.348 67.1211 293.348ZM75.4297 288.555C75.4297 286.578 75.8867 285.008 76.8008 283.844C77.7148 282.672 78.9258 282.086 80.4336 282.086C81.9805 282.086 83.1875 282.633 84.0547 283.727L84.1602 282.32H86.1406V294.695C86.1406 296.336 85.6523 297.629 84.6758 298.574C83.707 299.52 82.4023 299.992 80.7617 299.992C79.8477 299.992 78.9531 299.797 78.0781 299.406C77.2031 299.016 76.5352 298.48 76.0742 297.801L77.1992 296.5C78.1289 297.648 79.2656 298.223 80.6094 298.223C81.6641 298.223 82.4844 297.926 83.0703 297.332C83.6641 296.738 83.9609 295.902 83.9609 294.824V293.734C83.0938 294.734 81.9102 295.234 80.4102 295.234C78.9258 295.234 77.7227 294.637 76.8008 293.441C75.8867 292.246 75.4297 290.617 75.4297 288.555ZM77.6094 288.801C77.6094 290.23 77.9023 291.355 78.4883 292.176C79.0742 292.988 79.8945 293.395 80.9492 293.395C82.3164 293.395 83.3203 292.773 83.9609 291.531V285.742C83.2969 284.531 82.3008 283.926 80.9727 283.926C79.918 283.926 79.0938 284.336 78.5 285.156C77.9062 285.977 77.6094 287.191 77.6094 288.801ZM94.6836 295.234C92.9648 295.234 91.5664 294.672 90.4883 293.547C89.4102 292.414 88.8711 290.902 88.8711 289.012V288.613C88.8711 287.355 89.1094 286.234 89.5859 285.25C90.0703 284.258 90.7422 283.484 91.6016 282.93C92.4688 282.367 93.4062 282.086 94.4141 282.086C96.0625 282.086 97.3438 282.629 98.2578 283.715C99.1719 284.801 99.6289 286.355 99.6289 288.379V289.281H91.0391C91.0703 290.531 91.4336 291.543 92.1289 292.316C92.832 293.082 93.7227 293.465 94.8008 293.465C95.5664 293.465 96.2148 293.309 96.7461 292.996C97.2773 292.684 97.7422 292.27 98.1406 291.754L99.4648 292.785C98.4023 294.418 96.8086 295.234 94.6836 295.234ZM94.4141 283.867C93.5391 283.867 92.8047 284.188 92.2109 284.828C91.6172 285.461 91.25 286.352 91.1094 287.5H97.4609V287.336C97.3984 286.234 97.1016 285.383 96.5703 284.781C96.0391 284.172 95.3203 283.867 94.4141 283.867ZM108.277 284.266C107.949 284.211 107.594 284.184 107.211 284.184C105.789 284.184 104.824 284.789 104.316 286V295H102.148V282.32H104.258L104.293 283.785C105.004 282.652 106.012 282.086 107.316 282.086C107.738 282.086 108.059 282.141 108.277 282.25V284.266Z" fill="white"/>
<path d="M603.32 534H601.624V528.085H595.173V534H593.485V521.203H595.173V526.705H601.624V521.203H603.32V534ZM611.011 528.823H608.005V534H606.309V521.203H610.545C611.986 521.203 613.094 521.531 613.867 522.188C614.646 522.844 615.036 523.799 615.036 525.053C615.036 525.85 614.819 526.544 614.386 527.136C613.958 527.728 613.36 528.17 612.593 528.463L615.599 533.895V534H613.788L611.011 528.823ZM608.005 527.443H610.598C611.436 527.443 612.101 527.227 612.593 526.793C613.091 526.359 613.34 525.779 613.34 525.053C613.34 524.262 613.103 523.655 612.628 523.233C612.159 522.812 611.479 522.598 610.589 522.592H608.005V527.443ZM593.485 555V542.203H597.098C598.211 542.203 599.195 542.449 600.051 542.941C600.906 543.434 601.565 544.134 602.028 545.042C602.497 545.95 602.734 546.993 602.74 548.171V548.988C602.74 550.195 602.506 551.253 602.037 552.161C601.574 553.069 600.909 553.767 600.042 554.253C599.181 554.739 598.176 554.988 597.027 555H593.485ZM595.173 543.592V553.62H596.948C598.249 553.62 599.26 553.216 599.98 552.407C600.707 551.599 601.07 550.447 601.07 548.953V548.206C601.07 546.753 600.728 545.625 600.042 544.822C599.362 544.014 598.396 543.604 597.142 543.592H595.173ZM608.989 555.176C607.7 555.176 606.651 554.754 605.843 553.91C605.034 553.061 604.63 551.927 604.63 550.509V550.21C604.63 549.267 604.809 548.426 605.166 547.688C605.529 546.943 606.033 546.363 606.678 545.947C607.328 545.525 608.031 545.314 608.787 545.314C610.023 545.314 610.984 545.722 611.67 546.536C612.355 547.351 612.698 548.517 612.698 550.034V550.711H606.256C606.279 551.648 606.552 552.407 607.073 552.987C607.601 553.562 608.269 553.849 609.077 553.849C609.651 553.849 610.138 553.731 610.536 553.497C610.935 553.263 611.283 552.952 611.582 552.565L612.575 553.339C611.778 554.563 610.583 555.176 608.989 555.176ZM608.787 546.65C608.131 546.65 607.58 546.891 607.135 547.371C606.689 547.846 606.414 548.514 606.309 549.375H611.072V549.252C611.025 548.426 610.803 547.787 610.404 547.336C610.006 546.879 609.467 546.65 608.787 546.65ZM622.621 550.351C622.621 551.798 622.29 552.964 621.628 553.849C620.966 554.733 620.069 555.176 618.938 555.176C617.784 555.176 616.876 554.81 616.214 554.077V558.656H614.588V545.49H616.073L616.152 546.545C616.814 545.725 617.734 545.314 618.912 545.314C620.055 545.314 620.957 545.745 621.619 546.606C622.287 547.468 622.621 548.666 622.621 550.201V550.351ZM620.995 550.166C620.995 549.094 620.767 548.247 620.31 547.626C619.853 547.005 619.226 546.694 618.429 546.694C617.444 546.694 616.706 547.131 616.214 548.004V552.548C616.7 553.415 617.444 553.849 618.446 553.849C619.226 553.849 619.844 553.541 620.301 552.926C620.764 552.305 620.995 551.385 620.995 550.166ZM630.566 555C630.473 554.812 630.396 554.479 630.338 553.998C629.582 554.783 628.68 555.176 627.631 555.176C626.693 555.176 625.923 554.912 625.319 554.385C624.722 553.852 624.423 553.178 624.423 552.363C624.423 551.373 624.798 550.605 625.548 550.061C626.304 549.51 627.364 549.234 628.729 549.234H630.312V548.487C630.312 547.919 630.142 547.468 629.802 547.134C629.462 546.794 628.961 546.624 628.299 546.624C627.719 546.624 627.232 546.771 626.84 547.063C626.447 547.356 626.251 547.711 626.251 548.127H624.616C624.616 547.652 624.783 547.195 625.117 546.756C625.457 546.311 625.914 545.959 626.488 545.701C627.068 545.443 627.704 545.314 628.396 545.314C629.491 545.314 630.35 545.59 630.971 546.141C631.592 546.686 631.914 547.438 631.938 548.399V552.776C631.938 553.649 632.049 554.344 632.271 554.859V555H630.566ZM627.868 553.761C628.378 553.761 628.861 553.629 629.318 553.365C629.775 553.102 630.106 552.759 630.312 552.337V550.386H629.037C627.045 550.386 626.049 550.969 626.049 552.135C626.049 552.645 626.219 553.043 626.559 553.33C626.898 553.617 627.335 553.761 627.868 553.761ZM639.083 546.949C638.837 546.908 638.57 546.888 638.283 546.888C637.217 546.888 636.493 547.342 636.112 548.25V555H634.486V545.49H636.068L636.095 546.589C636.628 545.739 637.384 545.314 638.362 545.314C638.679 545.314 638.919 545.355 639.083 545.438V546.949ZM643.231 543.188V545.49H645.007V546.747H643.231V552.645C643.231 553.025 643.311 553.312 643.469 553.506C643.627 553.693 643.896 553.787 644.277 553.787C644.465 553.787 644.723 553.752 645.051 553.682V555C644.623 555.117 644.207 555.176 643.803 555.176C643.076 555.176 642.528 554.956 642.159 554.517C641.79 554.077 641.605 553.453 641.605 552.645V546.747H639.874V545.49H641.605V543.188H643.231ZM650.86 555.176C649.571 555.176 648.522 554.754 647.714 553.91C646.905 553.061 646.501 551.927 646.501 550.509V550.21C646.501 549.267 646.68 548.426 647.037 547.688C647.4 546.943 647.904 546.363 648.549 545.947C649.199 545.525 649.902 545.314 650.658 545.314C651.895 545.314 652.855 545.722 653.541 546.536C654.227 547.351 654.569 548.517 654.569 550.034V550.711H648.127C648.15 551.648 648.423 552.407 648.944 552.987C649.472 553.562 650.14 553.849 650.948 553.849C651.522 553.849 652.009 553.731 652.407 553.497C652.806 553.263 653.154 552.952 653.453 552.565L654.446 553.339C653.649 554.563 652.454 555.176 650.86 555.176ZM650.658 546.65C650.002 546.65 649.451 546.891 649.006 547.371C648.561 547.846 648.285 548.514 648.18 549.375H652.943V549.252C652.896 548.426 652.674 547.787 652.275 547.336C651.877 546.879 651.338 546.65 650.658 546.65ZM657.988 545.49L658.032 546.545C658.729 545.725 659.67 545.314 660.854 545.314C662.184 545.314 663.089 545.824 663.569 546.844C663.886 546.387 664.296 546.018 664.8 545.736C665.31 545.455 665.91 545.314 666.602 545.314C668.688 545.314 669.748 546.419 669.783 548.628V555H668.157V548.725C668.157 548.045 668.002 547.538 667.691 547.204C667.381 546.864 666.859 546.694 666.127 546.694C665.523 546.694 665.022 546.876 664.624 547.239C664.226 547.597 663.994 548.08 663.93 548.689V555H662.295V548.769C662.295 547.386 661.618 546.694 660.265 546.694C659.198 546.694 658.469 547.148 658.076 548.057V555H656.45V545.49H657.988ZM676.19 555.176C674.901 555.176 673.853 554.754 673.044 553.91C672.235 553.061 671.831 551.927 671.831 550.509V550.21C671.831 549.267 672.01 548.426 672.367 547.688C672.73 546.943 673.234 546.363 673.879 545.947C674.529 545.525 675.232 545.314 675.988 545.314C677.225 545.314 678.186 545.722 678.871 546.536C679.557 547.351 679.899 548.517 679.899 550.034V550.711H673.457C673.48 551.648 673.753 552.407 674.274 552.987C674.802 553.562 675.47 553.849 676.278 553.849C676.853 553.849 677.339 553.731 677.737 553.497C678.136 553.263 678.484 552.952 678.783 552.565L679.776 553.339C678.979 554.563 677.784 555.176 676.19 555.176ZM675.988 546.65C675.332 546.65 674.781 546.891 674.336 547.371C673.891 547.846 673.615 548.514 673.51 549.375H678.273V549.252C678.227 548.426 678.004 547.787 677.605 547.336C677.207 546.879 676.668 546.65 675.988 546.65ZM683.327 545.49L683.38 546.686C684.106 545.771 685.056 545.314 686.228 545.314C688.237 545.314 689.251 546.448 689.269 548.716V555H687.643V548.707C687.637 548.021 687.479 547.515 687.168 547.187C686.863 546.858 686.386 546.694 685.735 546.694C685.208 546.694 684.745 546.835 684.347 547.116C683.948 547.397 683.638 547.767 683.415 548.224V555H681.789V545.49H683.327ZM693.927 543.188V545.49H695.702V546.747H693.927V552.645C693.927 553.025 694.006 553.312 694.164 553.506C694.322 553.693 694.592 553.787 694.973 553.787C695.16 553.787 695.418 553.752 695.746 553.682V555C695.318 555.117 694.902 555.176 694.498 555.176C693.771 555.176 693.224 554.956 692.854 554.517C692.485 554.077 692.301 553.453 692.301 552.645V546.747H690.569V545.49H692.301V543.188H693.927Z" fill="white"/>
</svg>
